<svg width="128" height="40" viewBox="0 0 128 40" fill="none" xmlns="http://www.w3.org/2000/svg">
<path fill-rule="evenodd" clip-rule="evenodd" d="M126.959 1.04181H113.641C113.641 1.04181 112.723 1.04181 112.398 1.85286L105.028 24.4266L97.6636 1.85286C97.339 1.04181 96.4158 1.04181 96.4158 1.04181H70.8086C70.2542 1.04181 69.7896 1.50502 69.7896 2.05608V9.72204C69.7896 3.64092 63.3222 1.04181 59.535 1.04181C51.0542 1.04181 45.3772 6.63046 43.6094 15.127C43.5136 9.49044 43.0454 7.4708 41.5278 5.40234C40.8308 4.38896 39.8232 3.53708 38.7262 2.83252C36.4672 1.50856 34.4388 1.04181 30.0796 1.04181H24.9612C24.9612 1.04181 24.036 1.04181 23.7096 1.85286L19.0525 13.4002V2.05608C19.0525 1.50502 18.5913 1.04181 18.0378 1.04181H6.19394C6.19394 1.04181 5.27952 1.04181 4.94692 1.85286L0.105242 13.8598C0.105242 13.8598 -0.37813 15.0605 0.726972 15.0605H5.27952V37.9404C5.27952 38.5082 5.72654 38.9582 6.29682 38.9582H18.0378C18.5913 38.9582 19.0525 38.5082 19.0525 37.9404V15.0605H23.629C26.2552 15.0605 26.8112 15.1323 27.833 15.6088C28.4484 15.8413 29.0028 16.3116 29.3052 16.8538C29.9244 18.0198 30.0796 19.4201 30.0796 23.549V37.9404C30.0796 38.5082 30.5354 38.9582 31.0986 38.9582H42.3518C42.3518 38.9582 43.6236 38.9582 44.1266 37.7016L46.6206 31.5344C49.9368 36.1816 55.3948 38.9582 62.178 38.9582H63.66C63.66 38.9582 64.9398 38.9582 65.4462 37.7016L69.7896 26.9396V37.9404C69.7896 38.5082 70.2542 38.9582 70.8086 38.9582H82.296C82.296 38.9582 83.5634 38.9582 84.0724 37.7016C84.0724 37.7016 88.6668 26.2892 88.6844 26.2032H88.6916C88.868 25.2536 87.669 25.2536 87.669 25.2536H83.5688V5.6712L96.469 37.7016C96.9728 38.9582 98.2428 38.9582 98.2428 38.9582H111.814C111.814 38.9582 113.091 38.9582 113.594 37.7016L127.896 2.26992C128.391 1.04181 126.959 1.04181 126.959 1.04181ZM69.7882 25.2536H62.072C59.0006 25.2536 56.502 22.7654 56.502 19.6888C56.502 16.6177 59.0006 14.1135 62.072 14.1135H64.2298C67.2932 14.1135 69.7882 16.6177 69.7882 19.6888V25.2536Z" fill="black"/>
</svg>
