<svg width="219" height="42" viewBox="0 0 219 42" fill="none" xmlns="http://www.w3.org/2000/svg">
<path d="M51.5192 16.8066L52.9279 15.0567C53.2876 15.5022 53.7383 15.8658 54.2498 16.1231C54.7614 16.3803 55.322 16.5254 55.8941 16.5485C57.036 16.5485 57.6047 16.0279 57.6047 15.2885C57.6047 14.4135 56.9704 14.0985 55.5266 13.6129C53.7329 12.9742 51.9348 12.1386 51.9348 9.88986C51.9348 7.97801 53.6148 6.51678 55.7629 6.48616C57.2383 6.48676 58.663 7.02489 59.7703 7.99989L58.4097 9.77611C57.421 8.95362 56.5504 8.60363 55.811 8.60363C54.9885 8.60363 54.3848 9.04112 54.3848 9.79361C54.3848 10.5461 55.0235 10.848 56.3841 11.3861C58.4447 12.1911 60.0722 12.7292 60.0722 15.026C60.0722 17.6247 57.806 18.6835 55.8635 18.6835C55.0494 18.685 54.2437 18.5191 53.4964 18.1963C52.7491 17.8734 52.0761 17.4004 51.5192 16.8066Z" fill="#1E1E1E"/>
<path d="M62.1984 15.971V12.178H61.2228V10.3667H62.1984V7.6849L64.3859 7.44865V10.3667H66.6171V12.178H64.3859V15.6779C64.3859 16.3823 64.6046 16.7148 65.1077 16.7148C65.4696 16.6945 65.823 16.5975 66.1446 16.4304L66.7177 18.1804C66.0497 18.5488 65.292 18.723 64.5302 18.6835C63.1171 18.6879 62.1984 17.8129 62.1984 15.971Z" fill="#1E1E1E"/>
<path d="M76.08 10.3667V18.5522H74.002V17.5635H73.9363C73.6468 17.9322 73.2734 18.2265 72.8474 18.422C72.4213 18.6176 71.9547 18.7087 71.4864 18.6879C69.2245 18.6879 67.5796 17.0079 67.5796 14.4792C67.5796 11.9505 69.242 10.2311 71.4382 10.2311C71.8918 10.2154 72.3431 10.3025 72.7583 10.4858C73.1734 10.6692 73.5418 10.944 73.8357 11.2898H73.8882V10.3667H76.08ZM73.9845 14.4923C73.9845 13.1798 73.1095 12.1955 71.9195 12.1955C70.7295 12.1955 69.8064 13.0704 69.8064 14.4923C69.8064 15.8048 70.6814 16.7235 71.902 16.7235C72.1877 16.7217 72.47 16.6616 72.7317 16.5469C72.9933 16.4322 73.2289 16.2653 73.4238 16.0564C73.6187 15.8476 73.769 15.6011 73.8654 15.3322C73.9618 15.0632 74.0023 14.7774 73.9845 14.4923Z" fill="#1E1E1E"/>
<path d="M78.6088 15.971V12.178H77.6332V10.3667H78.6088V7.6849L80.7963 7.44865V10.3667H83.0275V12.178H80.7963V15.6779C80.7963 16.3823 81.015 16.7148 81.5181 16.7148C81.8813 16.6939 82.236 16.597 82.5594 16.4304L83.1281 18.1804C82.4603 18.5492 81.7025 18.7235 80.9406 18.6835C79.5319 18.6879 78.6088 17.8129 78.6088 15.971Z" fill="#1E1E1E"/>
<path d="M84.6593 7.86864C84.6541 7.5962 84.7303 7.32839 84.8781 7.09949C85.026 6.87059 85.2388 6.691 85.4892 6.58371C85.7397 6.47642 86.0165 6.4463 86.2842 6.49721C86.5519 6.54811 86.7984 6.67773 86.992 6.86948C87.1856 7.06122 87.3176 7.30637 87.3711 7.57356C87.4246 7.84076 87.3972 8.11784 87.2923 8.36935C87.1875 8.62087 87.01 8.83538 86.7825 8.98545C86.5551 9.13552 86.288 9.21431 86.0155 9.21175C85.6585 9.21063 85.3161 9.06918 85.0624 8.81791C84.8087 8.56664 84.6639 8.2257 84.6593 7.86864ZM84.9087 10.3667H87.0961V18.5522H84.9087V10.3667Z" fill="#1E1E1E"/>
<path d="M88.9161 17.4979L89.988 15.971C90.2822 16.2742 90.6345 16.5149 91.0239 16.6788C91.4133 16.8427 91.8317 16.9263 92.2542 16.9247C92.8929 16.9247 93.2604 16.6579 93.2604 16.2554C93.2604 15.8529 92.8229 15.6866 91.7686 15.3498C90.4255 14.9123 89.253 14.2604 89.253 12.6811C89.253 11.2067 90.5261 10.2311 92.2017 10.2311C93.2876 10.2069 94.3468 10.5698 95.1898 11.2548L94.131 12.8692C93.6121 12.3398 92.9116 12.0271 92.1711 11.9942C91.8167 11.9942 91.3661 12.1779 91.3661 12.6154C91.3661 12.9523 91.8036 13.1842 92.6042 13.4904C94.3848 14.1467 95.4216 14.5317 95.4216 16.1416C95.4216 17.6029 94.3848 18.6922 92.2367 18.6922C91.0211 18.7129 89.84 18.2881 88.9161 17.4979Z" fill="#1E1E1E"/>
<path d="M97.4822 15.971V12.178H96.511V10.3667H97.4822V7.6849L99.6697 7.44865V10.3667H101.901V12.178H99.6697V15.6779C99.6697 16.3823 99.8884 16.7148 100.392 16.7148C100.755 16.6951 101.11 16.5981 101.433 16.4304L102.002 18.1804C101.334 18.5496 100.576 18.724 99.8141 18.6835C98.4053 18.6879 97.4822 17.8129 97.4822 15.971Z" fill="#1E1E1E"/>
<path d="M103.533 7.86865C103.528 7.59638 103.604 7.32875 103.751 7.09994C103.899 6.87114 104.111 6.69155 104.362 6.58412C104.612 6.4767 104.888 6.44632 105.156 6.49687C105.424 6.54742 105.67 6.67659 105.864 6.8679C106.058 7.0592 106.19 7.30394 106.244 7.57084C106.298 7.83774 106.271 8.11469 106.167 8.36628C106.063 8.61788 105.886 8.8327 105.659 8.9833C105.432 9.1339 105.166 9.21344 104.893 9.21175C104.536 9.21178 104.192 9.07084 103.937 8.81945C103.683 8.56805 103.537 8.22646 103.533 7.86865ZM103.786 10.3667H105.974V18.5522H103.786V10.3667Z" fill="#1E1E1E"/>
<path d="M107.79 17.4979L108.866 15.971C109.158 16.274 109.509 16.5146 109.897 16.6785C110.285 16.8424 110.702 16.9262 111.123 16.9247C111.762 16.9247 112.129 16.6579 112.129 16.2554C112.129 15.8529 111.714 15.6866 110.638 15.3498C109.299 14.9123 108.122 14.2604 108.122 12.6811C108.122 11.2067 109.395 10.2311 111.075 10.2311C112.16 10.2064 113.218 10.5694 114.059 11.2548L113.004 12.8692C112.483 12.3403 111.782 12.0278 111.04 11.9942C110.69 11.9942 110.235 12.1779 110.235 12.6154C110.235 12.9523 110.673 13.1842 111.478 13.4904C113.254 14.1467 114.295 14.5317 114.295 16.1416C114.295 17.6029 113.254 18.6922 111.106 18.6922C109.892 18.7118 108.712 18.287 107.79 17.4979Z" fill="#1E1E1E"/>
<path d="M119.475 15.2973L118.338 16.6097V18.5697H116.15V6.20616H118.338V13.6873L121.269 10.3842H123.837L120.954 13.6392L123.885 18.5697H121.439L119.493 15.3148L119.475 15.2973Z" fill="#1E1E1E"/>
<path d="M129.249 17.4979L130.32 15.971C130.614 16.2748 130.966 16.516 131.356 16.6799C131.745 16.8438 132.164 16.9271 132.587 16.9247C133.221 16.9247 133.589 16.6579 133.589 16.2554C133.589 15.8529 133.151 15.6866 132.097 15.3498C130.758 14.9123 129.581 14.2604 129.581 12.6811C129.581 11.2067 130.859 10.2311 132.534 10.2311C133.619 10.2064 134.677 10.5694 135.518 11.2548L134.464 12.8692C133.942 12.3403 133.241 12.0278 132.499 11.9942C132.149 11.9942 131.694 12.1779 131.694 12.6154C131.694 12.9523 132.132 13.1842 132.937 13.4904C134.717 14.1467 135.754 14.5317 135.754 16.1416C135.754 17.6029 134.717 18.6922 132.569 18.6922C131.354 18.7129 130.173 18.2881 129.249 17.4979Z" fill="#1E1E1E"/>
<path d="M145.108 15.166H139.355C139.468 15.6301 139.739 16.0406 140.121 16.3277C140.503 16.6148 140.973 16.7608 141.45 16.741C141.827 16.7539 142.202 16.6769 142.544 16.5164C142.885 16.3559 143.184 16.1165 143.415 15.8179L144.841 17.1304C144.411 17.6426 143.869 18.0494 143.257 18.3194C142.645 18.5894 141.979 18.7155 141.31 18.6879C140.749 18.7104 140.188 18.6157 139.665 18.41C139.142 18.2042 138.667 17.8918 138.272 17.4926C137.876 17.0935 137.567 16.6163 137.366 16.0915C137.164 15.5667 137.074 15.0057 137.102 14.4442C137.102 11.9592 138.825 10.2311 141.157 10.2311C143.559 10.2311 145.165 11.9811 145.165 14.3785C145.174 14.6423 145.155 14.9064 145.108 15.166ZM139.372 13.5867H142.977C142.901 13.1806 142.683 12.8147 142.363 12.5536C142.043 12.2926 141.64 12.1533 141.227 12.1605C140.799 12.1404 140.378 12.2727 140.038 12.5338C139.699 12.7949 139.463 13.168 139.372 13.5867Z" fill="#1E1E1E"/>
<path d="M154.916 13.6873V18.5522H152.729V14.2429C152.729 12.6811 152.173 12.1954 151.15 12.1954C150.043 12.1954 149.29 12.9654 149.29 14.4267V18.5522H147.103V10.3667H149.29V11.4255H149.321C149.643 11.0454 150.046 10.7413 150.5 10.5349C150.954 10.3284 151.447 10.2247 151.946 10.2311C153.691 10.2311 154.916 11.1717 154.916 13.6873Z" fill="#1E1E1E"/>
<path d="M157.393 15.971V12.178H156.417V10.3667H157.393V7.6849L159.58 7.44865V10.3667H161.811V12.178H159.58V15.6779C159.58 16.3823 159.799 16.7148 160.302 16.7148C160.665 16.6945 161.02 16.5976 161.343 16.4304L161.912 18.1804C161.244 18.5492 160.486 18.7235 159.724 18.6835C158.316 18.6879 157.393 17.8129 157.393 15.971Z" fill="#1E1E1E"/>
<path d="M168.457 10.2486V12.6329C168.238 12.6329 168.019 12.6329 167.888 12.6329C167.608 12.618 167.328 12.6627 167.067 12.7641C166.806 12.8655 166.569 13.0212 166.373 13.221C166.176 13.4208 166.024 13.6601 165.927 13.923C165.83 14.186 165.79 14.4665 165.81 14.746V18.5522H163.622V10.3667H165.81V11.5742C166.083 11.1647 166.452 10.8282 166.886 10.5941C167.319 10.36 167.803 10.2354 168.295 10.2311C168.349 10.2268 168.404 10.2327 168.457 10.2486Z" fill="#1E1E1E"/>
<path d="M177.898 10.3667V18.5522H175.82V17.5635H175.767C175.478 17.9322 175.104 18.2265 174.678 18.422C174.252 18.6176 173.786 18.7087 173.317 18.6879C171.055 18.6879 169.41 17.0079 169.41 14.4792C169.41 11.9505 171.069 10.2311 173.269 10.2311C173.723 10.2154 174.174 10.3025 174.589 10.4858C175.004 10.6692 175.373 10.944 175.667 11.2898H175.715V10.3667H177.898ZM175.802 14.4923C175.802 13.1798 174.927 12.1955 173.737 12.1955C172.547 12.1955 171.624 13.0704 171.624 14.4923C171.624 15.8048 172.499 16.7235 173.724 16.7235C174.01 16.7217 174.292 16.6616 174.553 16.5469C174.815 16.4321 175.05 16.2651 175.245 16.0562C175.439 15.8473 175.589 15.6008 175.685 15.3318C175.781 15.0629 175.821 14.7772 175.802 14.4923Z" fill="#1E1E1E"/>
<path d="M180.308 6.20616H182.496V18.5522H180.308V6.20616Z" fill="#1E1E1E"/>
<path d="M193.556 14.4792C193.556 17.0079 191.911 18.6878 189.618 18.6878C189.142 18.71 188.668 18.6198 188.233 18.4244C187.798 18.2291 187.415 17.9342 187.116 17.5635H187.068V18.5522H184.972V6.20616H187.16V11.2898H187.247C187.554 10.9415 187.935 10.6658 188.362 10.4827C188.788 10.2996 189.25 10.2136 189.715 10.2311C191.893 10.2311 193.556 11.9942 193.556 14.4792ZM191.325 14.4792C191.325 13.0704 190.401 12.1823 189.229 12.1823C188.934 12.1829 188.643 12.2438 188.373 12.3614C188.102 12.479 187.859 12.6507 187.658 12.8659C187.457 13.0811 187.302 13.3353 187.202 13.6128C187.103 13.8902 187.062 14.1851 187.081 14.4792C187.065 14.7692 187.109 15.0594 187.211 15.3317C187.312 15.604 187.468 15.8525 187.67 16.0618C187.871 16.271 188.114 16.4366 188.382 16.5482C188.65 16.6598 188.938 16.715 189.229 16.7104C190.467 16.7235 191.325 15.8179 191.325 14.4923V14.4792Z" fill="#1E1E1E"/>
<path d="M202.625 10.3667L198.211 21.8728H195.966L197.41 18.0491L194.155 10.3667H196.434L198.447 15.4373L200.324 10.3711L202.625 10.3667Z" fill="#1E1E1E"/>
<path d="M209.043 10.2486V12.6329C208.824 12.6329 208.605 12.6329 208.47 12.6329C208.187 12.6159 207.904 12.6595 207.64 12.7611C207.375 12.8626 207.136 13.0196 206.937 13.2215C206.739 13.4233 206.586 13.6654 206.489 13.9315C206.391 14.1975 206.353 14.4812 206.374 14.7635V18.5697H204.187V10.3667H206.374V11.5742C206.647 11.1653 207.016 10.8292 207.448 10.5951C207.88 10.361 208.363 10.2361 208.855 10.2311C208.918 10.224 208.982 10.2299 209.043 10.2486Z" fill="#1E1E1E"/>
<path d="M218.48 10.3667V18.5522H216.402V17.5635H216.349C216.06 17.9318 215.688 18.226 215.262 18.4215C214.837 18.617 214.371 18.7083 213.904 18.6879C211.637 18.6879 209.992 17.0079 209.992 14.4792C209.992 11.9505 211.655 10.2311 213.851 10.2311C214.305 10.2154 214.756 10.3025 215.171 10.4858C215.586 10.6692 215.955 10.944 216.249 11.2898H216.301V10.3667H218.48ZM216.384 14.4923C216.384 13.1798 215.509 12.1955 214.324 12.1955C213.138 12.1955 212.206 13.0704 212.206 14.4923C212.184 14.7798 212.222 15.0687 212.318 15.3406C212.414 15.6125 212.566 15.8613 212.764 16.0713C212.961 16.2813 213.201 16.4477 213.466 16.56C213.732 16.6723 214.018 16.728 214.306 16.7235C214.592 16.7217 214.874 16.6616 215.135 16.5469C215.397 16.4321 215.632 16.2651 215.826 16.0562C216.021 15.8473 216.171 15.6008 216.267 15.3318C216.363 15.0629 216.403 14.7772 216.384 14.4923ZM212.591 7.86865C212.614 7.40311 212.815 6.9642 213.153 6.6428C213.49 6.32141 213.938 6.14215 214.404 6.14215C214.871 6.14215 215.319 6.32141 215.656 6.6428C215.994 6.9642 216.195 7.40311 216.218 7.86865C216.195 8.33419 215.994 8.7731 215.656 9.0945C215.319 9.41589 214.871 9.59515 214.404 9.59515C213.938 9.59515 213.49 9.41589 213.153 9.0945C212.815 8.7731 212.614 8.33419 212.591 7.86865ZM213.768 7.86865C213.769 8.02842 213.833 8.18132 213.946 8.29429C214.059 8.40727 214.212 8.47125 214.372 8.47239C214.459 8.47965 214.546 8.4688 214.628 8.44055C214.711 8.41229 214.786 8.36724 214.851 8.30823C214.915 8.24923 214.966 8.17756 215.001 8.09775C215.036 8.01795 215.054 7.93174 215.054 7.84459C215.054 7.75744 215.036 7.67123 215.001 7.59143C214.966 7.51162 214.915 7.43995 214.851 7.38094C214.786 7.32194 214.711 7.27688 214.628 7.24863C214.546 7.22037 214.459 7.20953 214.372 7.21679C214.208 7.22359 214.054 7.29355 213.942 7.41191C213.829 7.53027 213.767 7.68776 213.768 7.85115V7.86865Z" fill="#1E1E1E"/>
<path d="M51.8473 34.9232L52.5517 34.0964C52.8527 34.4612 53.23 34.7556 53.6571 34.9589C54.0841 35.1623 54.5505 35.2695 55.0235 35.2732C56.1173 35.2732 56.8479 34.7614 56.8479 33.9082C56.8479 32.902 56.0429 32.6351 54.8485 32.1845C53.536 31.6945 52.1842 31.1302 52.1842 29.5858C52.1842 28.2515 53.3917 27.2365 54.9098 27.2233C55.9474 27.2358 56.9494 27.6033 57.7491 28.2646L57.0841 29.1396C56.4849 28.6095 55.7221 28.3007 54.9229 28.2646C54.096 28.2646 53.3392 28.7021 53.3392 29.5552C53.3392 30.4083 54.131 30.7102 55.2379 31.152C56.7472 31.7295 58.0028 32.1451 58.0028 33.8164C58.0028 35.4876 56.5591 36.3276 55.0235 36.3276C54.4256 36.3272 53.8343 36.2021 53.2874 35.9603C52.7405 35.7185 52.25 35.3653 51.8473 34.9232Z" fill="#1E1E1E"/>
<path d="M59.8622 34.407V30.9902H59.0834V30.1152H59.8622V28.0283L60.8772 27.9146V30.102H62.9159V30.977H60.8772V34.2495C60.8772 34.9757 61.0565 35.3432 61.6296 35.3432C61.9945 35.3248 62.3492 35.2166 62.6621 35.0282L62.9377 35.9032C62.4876 36.1632 61.9743 36.2935 61.4546 36.2794C60.374 36.3057 59.8622 35.6407 59.8622 34.407Z" fill="#1E1E1E"/>
<path d="M69.9989 30.1108V36.2357H69.0189V35.2645C68.77 35.5936 68.4469 35.8595 68.076 36.0404C67.705 36.2213 67.2966 36.3122 66.884 36.3057C66.4787 36.3178 66.0752 36.2456 65.6993 36.0937C65.3234 35.9417 64.9831 35.7133 64.7001 35.4229C64.4172 35.1325 64.1976 34.7864 64.0554 34.4067C63.9132 34.027 63.8514 33.6219 63.874 33.217C63.874 31.4058 65.1296 30.0364 66.8621 30.0364C67.2667 30.0297 67.6676 30.1157 68.0338 30.2878C68.4001 30.46 68.7221 30.7137 68.9752 31.0295V30.1108H69.9989ZM69.0189 33.217C69.0373 32.9344 68.9983 32.651 68.9043 32.3839C68.8103 32.1167 68.6633 31.8714 68.472 31.6625C68.2807 31.4537 68.0492 31.2857 67.7913 31.1686C67.5335 31.0516 67.2546 30.9879 66.9715 30.9814C65.8165 30.9814 64.8977 31.8564 64.8977 33.217C64.8797 33.4949 64.9191 33.7736 65.0136 34.0356C65.1081 34.2976 65.2557 34.5373 65.447 34.7398C65.6383 34.9422 65.8694 35.1029 66.1256 35.2121C66.3819 35.3212 66.6579 35.3762 66.9365 35.3738C67.2157 35.3741 67.4922 35.3178 67.7491 35.2084C68.006 35.099 68.2382 34.9387 68.4315 34.7371C68.6249 34.5356 68.7754 34.297 68.8741 34.0358C68.9728 33.7745 69.0176 33.496 69.0058 33.217H69.0189Z" fill="#1E1E1E"/>
<path d="M72.1864 34.407V30.9902H71.4077V30.1152H72.1864V28.0283L73.2014 27.9146V30.102H75.2488V30.977H73.2145V34.2495C73.2145 34.9757 73.3895 35.3432 73.967 35.3432C74.3318 35.3248 74.6865 35.2166 74.9995 35.0282L75.2751 35.9032C74.8247 36.1626 74.3115 36.2928 73.792 36.2794C72.6851 36.3057 72.1864 35.6407 72.1864 34.407Z" fill="#1E1E1E"/>
<path d="M76.6051 28.2646C76.6059 28.1203 76.6495 27.9794 76.7303 27.8599C76.8111 27.7403 76.9255 27.6473 77.0591 27.5927C77.1927 27.5381 77.3394 27.5242 77.4809 27.5529C77.6223 27.5816 77.7521 27.6515 77.8538 27.7539C77.9556 27.8562 78.0247 27.9864 78.0526 28.128C78.0804 28.2696 78.0657 28.4163 78.0103 28.5495C77.9548 28.6828 77.8612 28.7966 77.7411 28.8767C77.6211 28.9568 77.48 28.9996 77.3357 28.9996C77.2389 29.0014 77.1427 28.9836 77.053 28.9472C76.9632 28.9108 76.8818 28.8567 76.8135 28.788C76.7452 28.7194 76.6916 28.6376 76.6557 28.5476C76.6199 28.4577 76.6027 28.3614 76.6051 28.2646ZM76.8194 30.1108H77.8344V36.2357H76.8194V30.1108Z" fill="#1E1E1E"/>
<path d="M79.5319 35.4263L80.0612 34.6607C80.3076 34.9026 80.6008 35.0918 80.9227 35.2166C81.2446 35.3415 81.5886 35.3994 81.9337 35.387C82.6599 35.387 83.0887 35.0107 83.0887 34.5732C83.0887 34.0439 82.5243 33.8689 81.6318 33.567C80.6387 33.217 79.7987 32.8014 79.7987 31.6814C79.7987 30.7408 80.6518 30.0364 81.82 30.0364C82.5863 30.0266 83.3305 30.2938 83.9155 30.7889L83.3906 31.5939C82.9445 31.1935 82.3669 30.9709 81.7675 30.9683C81.3037 30.9683 80.8268 31.2439 80.8268 31.6814C80.8268 32.1189 81.33 32.3858 81.9818 32.6351C83.2943 33.1382 84.1299 33.3526 84.1168 34.5601C84.1168 35.5138 83.4037 36.3101 81.9293 36.3101C81.0474 36.3282 80.1911 36.0125 79.5319 35.4263Z" fill="#1E1E1E"/>
<path d="M85.928 34.407V30.9902H85.1493V30.1152H85.928V28.0283L86.943 27.9146V30.102H88.9817V30.977H86.943V34.2495C86.943 34.9757 87.1224 35.3432 87.6999 35.3432C88.0633 35.3243 88.4164 35.2161 88.728 35.0282L89.0036 35.9032C88.5535 36.1632 88.0401 36.2935 87.5205 36.2794C86.4311 36.3057 85.928 35.6407 85.928 34.407Z" fill="#1E1E1E"/>
<path d="M90.3511 28.2646C90.3511 28.1698 90.3699 28.076 90.4066 27.9886C90.4432 27.9012 90.4969 27.822 90.5646 27.7556C90.6322 27.6892 90.7123 27.637 90.8004 27.6019C90.8884 27.5669 90.9826 27.5497 91.0773 27.5515C91.1759 27.5437 91.2751 27.5565 91.3686 27.5889C91.462 27.6214 91.5478 27.6728 91.6204 27.74C91.6931 27.8072 91.751 27.8886 91.7907 27.9793C91.8303 28.0699 91.8508 28.1678 91.8508 28.2668C91.8508 28.3657 91.8303 28.4636 91.7907 28.5542C91.751 28.6449 91.6931 28.7263 91.6204 28.7935C91.5478 28.8607 91.462 28.9121 91.3686 28.9446C91.2751 28.977 91.1759 28.9898 91.0773 28.9821C90.982 28.9844 90.8873 28.9675 90.7987 28.9324C90.7101 28.8973 90.6294 28.8447 90.5616 28.7777C90.4938 28.7107 90.4402 28.6308 90.4041 28.5426C90.3679 28.4544 90.3499 28.3599 90.3511 28.2646ZM90.5611 30.1108H91.5804V36.2357H90.5611V30.1108Z" fill="#1E1E1E"/>
<path d="M93.4267 33.1776C93.4034 32.7657 93.4661 32.3535 93.6107 31.9671C93.7553 31.5807 93.9787 31.2286 94.2667 30.9332C94.5547 30.6378 94.901 30.4055 95.2836 30.2511C95.6662 30.0968 96.0767 30.0236 96.4891 30.0364C96.9541 30.0314 97.4147 30.1265 97.8397 30.3152C98.2647 30.5039 98.6441 30.7819 98.9522 31.1302L98.2478 31.747C98.0391 31.4985 97.7767 31.3004 97.4804 31.1678C97.1842 31.0352 96.8617 30.9715 96.5372 30.9814C95.9571 30.9814 95.4007 31.2119 94.9905 31.6221C94.5802 32.0323 94.3498 32.5887 94.3498 33.1689C94.3498 33.749 94.5802 34.3054 94.9905 34.7156C95.4007 35.1259 95.9571 35.3563 96.5372 35.3563C96.863 35.361 97.1864 35.299 97.4873 35.1741C97.7883 35.0493 98.0605 34.8641 98.2872 34.6301L98.9872 35.2557C98.6604 35.5926 98.2674 35.8582 97.833 36.0359C97.3985 36.2135 96.9321 36.2995 96.4629 36.2882C94.6954 36.3057 93.4267 35.037 93.4267 33.1776Z" fill="#1E1E1E"/>
<path d="M100.024 35.4263L100.549 34.6607C100.795 34.9026 101.089 35.0918 101.411 35.2166C101.732 35.3415 102.076 35.3994 102.422 35.387C103.148 35.387 103.577 35.0107 103.577 34.5732C103.577 34.0439 103.012 33.8689 102.12 33.567C101.127 33.217 100.287 32.8014 100.287 31.6814C100.287 30.7408 101.162 30.0364 102.308 30.0364C103.076 30.0259 103.821 30.2931 104.408 30.7889L103.878 31.5939C103.434 31.1938 102.858 30.9711 102.26 30.9683C101.792 30.9683 101.315 31.2439 101.315 31.6814C101.315 32.1189 101.818 32.3858 102.47 32.6351C103.782 33.1382 104.618 33.3526 104.609 34.5601C104.609 35.5138 103.892 36.3101 102.422 36.3101C101.54 36.3282 100.683 36.0125 100.024 35.4263Z" fill="#1E1E1E"/>
<path d="M117.318 27.3108V36.2313H116.203L111.202 29.1964H111.176V36.2313H110.082V27.3108H111.163L116.203 34.4201H116.229V27.3108H117.318Z" fill="#1E1E1E"/>
<path d="M119.23 33.1776C119.225 32.5532 119.405 31.9413 119.748 31.4195C120.091 30.8976 120.581 30.4892 121.156 30.2461C121.731 30.0029 122.365 29.9359 122.979 30.0536C123.592 30.1713 124.156 30.4683 124.601 30.907C125.045 31.3458 125.349 31.9066 125.474 32.5183C125.6 33.13 125.541 33.7651 125.305 34.3433C125.069 34.9214 124.667 35.4165 124.149 35.7658C123.631 36.1152 123.022 36.3031 122.397 36.3057C121.981 36.3201 121.566 36.2493 121.178 36.0977C120.789 35.9461 120.436 35.7169 120.14 35.4241C119.843 35.1312 119.61 34.7809 119.453 34.3947C119.297 34.0084 119.221 33.5943 119.23 33.1776ZM124.506 33.1776C124.494 32.7592 124.359 32.3536 124.117 32.0117C123.876 31.6699 123.538 31.407 123.148 31.2559C122.758 31.1049 122.331 31.0725 121.922 31.1627C121.514 31.253 121.141 31.4619 120.85 31.7633C120.56 32.0647 120.364 32.4451 120.289 32.8569C120.214 33.2687 120.262 33.6936 120.427 34.0782C120.593 34.4628 120.868 34.7901 121.218 35.0191C121.569 35.248 121.979 35.3684 122.397 35.3651C122.682 35.3684 122.964 35.3135 123.227 35.2037C123.489 35.0939 123.727 34.9316 123.924 34.7267C124.122 34.5218 124.275 34.2787 124.375 34.0123C124.475 33.7459 124.52 33.4619 124.506 33.1776Z" fill="#1E1E1E"/>
<path d="M130.574 30.0495V31.187C130.434 31.187 130.272 31.187 130.172 31.187C129.017 31.187 128.312 32.062 128.312 33.3089V36.2619H127.311V30.137H128.33V31.187C128.533 30.8373 128.824 30.5467 129.174 30.3441C129.524 30.1415 129.92 30.0339 130.325 30.032C130.408 30.0306 130.492 30.0364 130.574 30.0495Z" fill="#1E1E1E"/>
<path d="M140.282 30.1108L138.16 36.2357H137.207L135.824 31.7733L134.429 36.2357H133.501L131.379 30.1108H132.407L133.952 34.687H133.978L135.374 30.1152H136.249L137.67 34.687H137.697L139.254 30.1152L140.282 30.1108Z" fill="#1E1E1E"/>
<path d="M147.164 30.1108V36.2357H146.184V35.2645C145.935 35.5936 145.612 35.8595 145.241 36.0404C144.87 36.2213 144.462 36.3122 144.049 36.3057C143.644 36.3172 143.241 36.2446 142.866 36.0923C142.49 35.9401 142.151 35.7116 141.868 35.4212C141.586 35.1309 141.366 34.7851 141.224 34.4056C141.082 34.0262 141.021 33.6215 141.043 33.217C141.043 31.4058 142.303 30.0364 144.036 30.0364C144.436 30.0337 144.832 30.1216 145.193 30.2936C145.555 30.4656 145.872 30.7172 146.123 31.0295V30.1108H147.164ZM146.184 33.217C146.203 32.9343 146.164 32.6506 146.071 32.3832C145.977 32.1158 145.83 31.8702 145.638 31.6612C145.447 31.4522 145.215 31.2842 144.957 31.1674C144.699 31.0505 144.42 30.9873 144.136 30.9814C142.982 30.9814 142.067 31.8564 142.067 33.217C142.048 33.497 142.088 33.7778 142.183 34.0416C142.279 34.3054 142.428 34.5464 142.622 34.7493C142.816 34.9522 143.05 35.1125 143.309 35.22C143.568 35.3276 143.847 35.3799 144.128 35.3738C144.406 35.3723 144.681 35.3147 144.936 35.2045C145.192 35.0943 145.422 34.9338 145.614 34.7324C145.806 34.5311 145.956 34.2931 146.053 34.0327C146.151 33.7724 146.196 33.4949 146.184 33.217Z" fill="#1E1E1E"/>
<path d="M154.579 30.1108L151.123 38.7163H150.06L151.154 35.9776L148.568 30.1108H149.662L151.644 34.7745H151.67L153.516 30.1108H154.579Z" fill="#1E1E1E"/>
<path d="M21.9359 24.3928L38.9019 14.5973C37.2796 9.72994 33.8457 5.67404 29.3125 3.27123C24.7794 0.868417 19.4952 0.303173 14.5564 1.69279C9.61756 3.08241 5.40338 6.3202 2.7883 10.7343C0.173222 15.1484 -0.641972 20.3998 0.511877 25.399L19.3022 14.5623L21.9359 24.3928Z" fill="#1E1E1E"/>
<path d="M20.6891 27.3983L18.0641 17.5722L1.06311 27.3677C2.68537 32.2351 6.11936 36.291 10.6525 38.6938C15.1856 41.0966 20.4699 41.6618 25.4087 40.2722C30.3475 38.8826 34.5616 35.6448 37.1767 31.2307C39.7918 26.8166 40.607 21.5652 39.4531 16.566L20.6891 27.3983Z" fill="#1E1E1E"/>
</svg>
